<?xml version="1.0" encoding="UTF-8" standalone="no"?>
<!-- Created with Inkscape (http://www.inkscape.org/) -->

<svg
   xmlns:dc="http://purl.org/dc/elements/1.1/"
   xmlns:cc="http://creativecommons.org/ns#"
   xmlns:rdf="http://www.w3.org/1999/02/22-rdf-syntax-ns#"
   xmlns:svg="http://www.w3.org/2000/svg"
   xmlns="http://www.w3.org/2000/svg"
   xmlns:sodipodi="http://sodipodi.sourceforge.net/DTD/sodipodi-0.dtd"
   xmlns:inkscape="http://www.inkscape.org/namespaces/inkscape"
   id="svg8"
   version="1.1"
   viewBox="0 0 210 297"
   height="297mm"
   width="210mm"
   sodipodi:docname="epipolar.svg"
   inkscape:version="0.92.3 (2405546, 2018-03-11)">
  <sodipodi:namedview
     inkscape:window-maximized="1"
     inkscape:window-y="0"
     inkscape:window-x="1920"
     inkscape:window-height="1052"
     inkscape:window-width="1920"
     showgrid="false"
     inkscape:current-layer="layer1"
     inkscape:document-units="mm"
     inkscape:cy="1046.1739"
     inkscape:cx="168.39991"
     inkscape:zoom="1.979899"
     inkscape:pageshadow="2"
     inkscape:pageopacity="0.0"
     borderopacity="1.0"
     bordercolor="#666666"
     pagecolor="#ffffff"
     id="base" />
  <defs
     id="defs2">
    <marker
       inkscape:stockid="Arrow1Mend"
       orient="auto"
       refY="0.0"
       refX="0.0"
       id="Arrow1Mend"
       style="overflow:visible;"
       inkscape:isstock="true">
      <path
         id="path4785"
         d="M 0.0,0.0 L 5.0,-5.0 L -12.5,0.0 L 5.0,5.0 L 0.0,0.0 z "
         style="fill-rule:evenodd;stroke:#000000;stroke-width:1pt;stroke-opacity:1;fill:#000000;fill-opacity:1"
         transform="scale(0.4) rotate(180) translate(10,0)" />
    </marker>
    <marker
       inkscape:stockid="Arrow1Lend"
       orient="auto"
       refY="0.0"
       refX="0.0"
       id="marker5914"
       style="overflow:visible;"
       inkscape:isstock="true">
      <path
         id="path5912"
         d="M 0.0,0.0 L 5.0,-5.0 L -12.5,0.0 L 5.0,5.0 L 0.0,0.0 z "
         style="fill-rule:evenodd;stroke:#000000;stroke-width:1pt;stroke-opacity:1;fill:#000000;fill-opacity:1"
         transform="scale(0.8) rotate(180) translate(12.5,0)" />
    </marker>
    <marker
       inkscape:stockid="Arrow2Lend"
       orient="auto"
       refY="0.0"
       refX="0.0"
       id="Arrow2Lend"
       style="overflow:visible;"
       inkscape:isstock="true">
      <path
         id="path4797"
         style="fill-rule:evenodd;stroke-width:0.625;stroke-linejoin:round;stroke:#000000;stroke-opacity:1;fill:#000000;fill-opacity:1"
         d="M 8.7185878,4.0337352 L -2.2072895,0.016013256 L 8.7185884,-4.0017078 C 6.9730900,-1.6296469 6.9831476,1.6157441 8.7185878,4.0337352 z "
         transform="scale(1.1) rotate(180) translate(1,0)" />
    </marker>
    <marker
       inkscape:stockid="Arrow1Lend"
       orient="auto"
       refY="0.0"
       refX="0.0"
       id="Arrow1Lend"
       style="overflow:visible;"
       inkscape:isstock="true">
      <path
         id="path4779"
         d="M 0.0,0.0 L 5.0,-5.0 L -12.5,0.0 L 5.0,5.0 L 0.0,0.0 z "
         style="fill-rule:evenodd;stroke:#000000;stroke-width:1pt;stroke-opacity:1;fill:#000000;fill-opacity:1"
         transform="scale(0.8) rotate(180) translate(12.5,0)" />
    </marker>
    <marker
       inkscape:stockid="DotS"
       orient="auto"
       refY="0.0"
       refX="0.0"
       id="marker5080"
       style="overflow:visible"
       inkscape:isstock="true">
      <path
         id="path5078"
         d="M -2.5,-1.0 C -2.5,1.7600000 -4.7400000,4.0 -7.5,4.0 C -10.260000,4.0 -12.5,1.7600000 -12.5,-1.0 C -12.5,-3.7600000 -10.260000,-6.0 -7.5,-6.0 C -4.7400000,-6.0 -2.5,-3.7600000 -2.5,-1.0 z "
         style="fill-rule:evenodd;stroke:#000000;stroke-width:1pt;stroke-opacity:1;fill:#000000;fill-opacity:1"
         transform="scale(0.2) translate(7.4, 1)" />
    </marker>
    <marker
       inkscape:stockid="DotS"
       orient="auto"
       refY="0.0"
       refX="0.0"
       id="DotS"
       style="overflow:visible"
       inkscape:isstock="true">
      <path
         id="path4843"
         d="M -2.5,-1.0 C -2.5,1.7600000 -4.7400000,4.0 -7.5,4.0 C -10.260000,4.0 -12.5,1.7600000 -12.5,-1.0 C -12.5,-3.7600000 -10.260000,-6.0 -7.5,-6.0 C -4.7400000,-6.0 -2.5,-3.7600000 -2.5,-1.0 z "
         style="fill-rule:evenodd;stroke:#000000;stroke-width:1pt;stroke-opacity:1;fill:#000000;fill-opacity:1"
         transform="scale(0.2) translate(7.4, 1)" />
    </marker>
  </defs>
  <metadata
     id="metadata5">
    <rdf:RDF>
      <cc:Work
         rdf:about="">
        <dc:format>image/svg+xml</dc:format>
        <dc:type
           rdf:resource="http://purl.org/dc/dcmitype/StillImage" />
      </cc:Work>
    </rdf:RDF>
  </metadata>
  <g
     inkscape:label="Layer 1"
     inkscape:groupmode="layer"
     id="layer1">
    <path
       style="fill:#cfe1fd;stroke:none;stroke-width:0.26458332px;stroke-linecap:butt;stroke-linejoin:miter;stroke-opacity:1;fill-opacity:1"
       d="M 10.394345,23.345238 25.513393,33.550595 V 51.882437 L 10.394345,41.677081 Z"
       id="path4753"
       inkscape:connector-curvature="0"
       sodipodi:nodetypes="ccccc" />
    <path
       sodipodi:nodetypes="ccccc"
       inkscape:connector-curvature="0"
       id="path4765"
       d="m 20.403833,39.220238 1.802269,1.216532 v 2.18525 l -1.802269,-1.216531 z"
       style="fill:#5a97f7;fill-opacity:1;stroke:none;stroke-width:0.26458332px;stroke-linecap:butt;stroke-linejoin:miter;stroke-opacity:1" />
    <path
       style="fill:none;stroke:#000000;stroke-width:0.26499999;stroke-linecap:butt;stroke-linejoin:miter;stroke-miterlimit:4;stroke-dasharray:0.26499999, 0.26499999;stroke-dashoffset:0;stroke-opacity:1"
       d="m 25.520508,36.338775 c -1.461751,1.562954 -2.913227,3.106541 -4.344933,4.632207"
       id="path4767"
       inkscape:connector-curvature="0"
       sodipodi:nodetypes="cc" />
    <path
       inkscape:connector-curvature="0"
       id="path4769"
       d="M 21.237124,40.885597 10.111511,52.731596"
       style="fill:none;stroke:#000000;stroke-width:0.26458332px;stroke-linecap:butt;stroke-linejoin:miter;stroke-opacity:1;marker-end:url(#DotS)" />
    <path
       inkscape:connector-curvature="0"
       id="path4771"
       d="M 42.050865,18.716571 25.518288,36.336626"
       style="fill:none;stroke:#000000;stroke-width:0.26458332px;stroke-linecap:butt;stroke-linejoin:miter;stroke-opacity:1;marker-start:url(#marker5080)" />
    <text
       id="text5210"
       y="53.205353"
       x="12.851192"
       style="font-style:normal;font-weight:normal;font-size:10.58333302px;line-height:1.25;font-family:sans-serif;letter-spacing:0px;word-spacing:0px;fill:#000000;fill-opacity:1;stroke:none;stroke-width:0.26458332"
       xml:space="preserve"><tspan
         style="font-style:normal;font-variant:normal;font-weight:normal;font-stretch:normal;font-size:2.11666656px;font-family:'DejaVu Math TeX Gyre';-inkscape-font-specification:'DejaVu Math TeX Gyre, Normal';font-variant-ligatures:normal;font-variant-caps:normal;font-variant-numeric:normal;font-feature-settings:normal;text-align:start;writing-mode:lr-tb;text-anchor:start;stroke-width:0.26458332"
         y="53.205353"
         x="12.851192"
         id="tspan5208"
         sodipodi:role="line">O<tspan
   id="tspan5212"
   style="font-style:normal;font-variant:normal;font-weight:normal;font-stretch:normal;font-size:1.41111112px;font-family:'DejaVu Math TeX Gyre';-inkscape-font-specification:'DejaVu Math TeX Gyre, Normal';font-variant-ligatures:normal;font-variant-caps:normal;font-variant-numeric:normal;font-feature-settings:normal;text-align:start;writing-mode:lr-tb;baseline-shift:sub;text-anchor:start">1</tspan></tspan></text>
    <path
       sodipodi:nodetypes="ccccc"
       inkscape:connector-curvature="0"
       id="path5299"
       d="M 73.707385,23.345238 58.588337,33.550595 V 51.882437 L 73.707385,41.677081 Z"
       style="fill:#cfe1fd;fill-opacity:1;stroke:none;stroke-width:0.26458332px;stroke-linecap:butt;stroke-linejoin:miter;stroke-opacity:1" />
    <path
       style="fill:#5a97f7;fill-opacity:1;stroke:none;stroke-width:0.26458332px;stroke-linecap:butt;stroke-linejoin:miter;stroke-opacity:1"
       d="m 63.697897,39.220238 -1.802269,1.216532 v 2.18525 l 1.802269,-1.216531 z"
       id="path5301"
       inkscape:connector-curvature="0"
       sodipodi:nodetypes="ccccc" />
    <path
       sodipodi:nodetypes="cc"
       inkscape:connector-curvature="0"
       id="path5303"
       d="m 58.581222,36.338775 c 1.461751,1.562954 2.913227,3.106541 4.344933,4.632207"
       style="fill:none;stroke:#000000;stroke-width:0.26499999;stroke-linecap:butt;stroke-linejoin:miter;stroke-miterlimit:4;stroke-dasharray:0.26499999, 0.26499999;stroke-dashoffset:0;stroke-opacity:1" />
    <path
       style="fill:none;stroke:#000000;stroke-width:0.26458332px;stroke-linecap:butt;stroke-linejoin:miter;stroke-opacity:1;marker-end:url(#DotS)"
       d="M 62.864606,40.885597 73.990219,52.731596"
       id="path5305"
       inkscape:connector-curvature="0" />
    <path
       style="fill:none;stroke:#000000;stroke-width:0.26458332px;stroke-linecap:butt;stroke-linejoin:miter;stroke-opacity:1;marker-start:url(#marker5080)"
       d="M 42.050865,18.716571 58.583442,36.336626"
       id="path5307"
       inkscape:connector-curvature="0" />
    <text
       xml:space="preserve"
       style="font-style:normal;font-weight:normal;font-size:10.58333302px;line-height:1.25;font-family:sans-serif;letter-spacing:0px;word-spacing:0px;fill:#000000;fill-opacity:1;stroke:none;stroke-width:0.26458332"
       x="68.419243"
       y="52.921871"
       id="text5319"><tspan
         sodipodi:role="line"
         id="tspan5317"
         x="68.419243"
         y="52.921871"
         style="font-style:normal;font-variant:normal;font-weight:normal;font-stretch:normal;font-size:2.11666656px;font-family:'DejaVu Math TeX Gyre';-inkscape-font-specification:'DejaVu Math TeX Gyre, Normal';font-variant-ligatures:normal;font-variant-caps:normal;font-variant-numeric:normal;font-feature-settings:normal;text-align:start;writing-mode:lr-tb;text-anchor:start;stroke-width:0.26458332">O<tspan
   style="font-size:64.99999762%;baseline-shift:sub"
   id="tspan5333">2</tspan></tspan></text>
    <g
       transform="matrix(0.99895541,0,0,1.0159833,-11.254027,21.047277)"
       aria-label="p2"
       inkscape:transform-center-x="38.5133"
       inkscape:transform-center-y="-10.848485"
       style="font-style:normal;font-weight:normal;font-size:10.58333302px;line-height:1.25;font-family:sans-serif;letter-spacing:0px;word-spacing:0px;fill:#000000;fill-opacity:1;stroke:none;stroke-width:0.26263112"
       id="text5234">
      <path
         inkscape:connector-curvature="0"
         d="m 75.969563,17.439866 c 0.07499,0.0988 0.112486,0.268127 0.112486,0.507984 0,0.239857 -0.03749,0.459804 -0.112486,0.659842 -0.07624,0.200881 -0.174355,0.341816 -0.29434,0.422807 -0.07499,0.05062 -0.138109,0.07062 -0.189352,0.05999 -0.05249,-0.0098 -0.09436,-0.0523 -0.125611,-0.127545 0,0 0,0.698926 0,0.698926 0,0 0.159357,-0.107565 0.159357,-0.107565 0,0 0,0.153352 0,0.153352 0,0 -0.489317,0.330288 -0.489317,0.330288 0,0 0,-0.153352 0,-0.153352 0,0 0.161231,-0.10883 0.161231,-0.10883 0,0 0,-1.837265 0,-1.837265 0,0 -0.161231,0.10883 -0.161231,0.10883 0,0 0,-0.153351 0,-0.153351 0,0 0.32996,-0.222723 0.32996,-0.222723 0,0 0,0.238873 0,0.238873 0.03125,-0.117428 0.07312,-0.216468 0.125611,-0.297119 0.05124,-0.0798 0.114359,-0.145016 0.189352,-0.195636 0.118735,-0.08015 0.216849,-0.07265 0.29434,0.0225 0,0 0,-4e-6 0,-4e-6 m -0.149983,1.165846 c 0.04374,-0.139624 0.06561,-0.314619 0.06561,-0.524985 0,-0.210366 -0.02187,-0.354852 -0.06561,-0.433457 -0.045,-0.07776 -0.110612,-0.08754 -0.196851,-0.02932 -0.08374,0.05652 -0.148732,0.148562 -0.194977,0.276113 -0.04499,0.13064 -0.06749,0.286397 -0.06749,0.467272 0,0 0,0.150402 0,0.150402 0,0.184807 0.0225,0.310193 0.06749,0.376157 0.045,0.06597 0.109987,0.07026 0.194977,0.0129 0.08624,-0.05821 0.151856,-0.156569 0.196851,-0.295073 0,0 0,0 0,0"
         style="font-style:normal;font-variant:normal;font-weight:normal;font-stretch:normal;font-size:2.11666656px;font-family:'DejaVu Math TeX Gyre';-inkscape-font-specification:'DejaVu Math TeX Gyre, Normal';font-variant-ligatures:normal;font-variant-caps:normal;font-variant-numeric:normal;font-feature-settings:normal;text-align:start;writing-mode:lr-tb;baseline-shift:baseline;text-anchor:start;stroke-width:0.26263112"
         id="path5337" />
      <path
         inkscape:connector-curvature="0"
         d="m 76.832568,18.797815 c 0,0 -0.572744,0.386602 -0.572744,0.386602 0,0 0,-0.101596 0,-0.101596 0,0 0.269312,-0.605417 0.269312,-0.605417 0.05687,-0.127843 0.09952,-0.242254 0.127953,-0.343232 0.02518,-0.100065 0.03778,-0.19099 0.03778,-0.272776 0,-0.09584 -0.01584,-0.158631 -0.04753,-0.188361 -0.03087,-0.03283 -0.07352,-0.03087 -0.127953,0.0059 -0.05687,0.03839 -0.100739,0.09036 -0.13161,0.155921 -0.03006,0.06374 -0.04834,0.142533 -0.05484,0.236371 0,0 -0.06702,0.04524 -0.06702,0.04524 0,0 0,-0.249195 0,-0.249195 0.04143,-0.06247 0.08409,-0.118739 0.127953,-0.168793 0.04387,-0.0475 0.08611,-0.08496 0.126735,-0.11238 0.09343,-0.06306 0.166543,-0.07727 0.219349,-0.04263 0.05362,0.03409 0.08043,0.111837 0.08043,0.233241 0,0.136738 -0.06093,0.34144 -0.182791,0.614106 -0.0097,0.02063 -0.01665,0.03616 -0.02072,0.04657 0,0 -0.224223,0.504059 -0.224223,0.504059 0,0 0.370456,-0.250057 0.370456,-0.250057 0,0 0,-0.172524 0,-0.172524 0,0 0.06946,-0.04688 0.06946,-0.04688 0,0 -2e-6,0.325871 -2e-6,0.325871"
         style="font-size:64.99999762%;baseline-shift:sub;stroke-width:0.26263112"
         id="path5339" />
    </g>
    <g
       id="text5770"
       style="font-style:normal;font-weight:normal;font-size:10.58333302px;line-height:1.25;font-family:sans-serif;letter-spacing:0px;word-spacing:0px;fill:#000000;fill-opacity:1;stroke:none;stroke-width:0.23439439"
       aria-label="I2"
       transform="matrix(0.96961303,0,0,1.3141109,-5.1735081,-1.1351993)">
      <path
         id="path5774"
         style="font-style:normal;font-variant:normal;font-weight:normal;font-stretch:normal;font-size:10.58333302px;font-family:'DejaVu Math TeX Gyre';-inkscape-font-specification:'DejaVu Math TeX Gyre, Normal';font-variant-ligatures:normal;font-variant-caps:normal;font-variant-numeric:normal;font-feature-settings:normal;text-align:start;writing-mode:lr-tb;text-anchor:start;stroke-width:0.23439439"
         d="m 78.74892,22.973267 c 0,0 -0.745246,0.503041 -0.745246,0.503041 0,0 0,-0.122318 0,-0.122318 0,0 0.243185,-0.16415 0.243185,-0.16415 0,0 0,-1.470163 0,-1.470163 0,0 -0.243185,0.164151 -0.243185,0.164151 0,0 0,-0.122318 0,-0.122318 0,0 0.745246,-0.503041 0.745246,-0.503041 0,0 0,0.122318 0,0.122318 0,0 -0.243186,0.16415 -0.243186,0.16415 0,0 0,1.470163 0,1.470163 0,0 0.243186,-0.16415 0.243186,-0.16415 0,0 0,0.122317 0,0.122317"
         inkscape:connector-curvature="0" />
      <path
         id="path5776"
         style="font-size:64.99999762%;baseline-shift:sub;stroke-width:0.23439439"
         d="m 79.805944,22.730229 c 0,0 -0.798852,0.539224 -0.798852,0.539224 0,0 0,-0.08103 0,-0.08103 0,0 0.37563,-0.591452 0.37563,-0.591452 0.07932,-0.124892 0.138808,-0.233341 0.178467,-0.325348 0.03513,-0.08996 0.05269,-0.167566 0.05269,-0.232802 0,-0.07645 -0.0221,-0.120145 -0.06629,-0.131088 -0.04306,-0.01375 -0.102548,0.005 -0.178467,0.05625 -0.07932,0.05354 -0.140507,0.112681 -0.183566,0.177421 -0.04193,0.06296 -0.06742,0.13317 -0.07649,0.210641 0,0 -0.09348,0.0631 -0.09348,0.0631 0,0 0,-0.198766 0,-0.198766 0.05779,-0.06653 0.117278,-0.1286 0.178466,-0.186211 0.06119,-0.05557 0.120111,-0.102481 0.176768,-0.140724 0.130309,-0.08796 0.23229,-0.128764 0.305943,-0.122418 0.07479,0.0056 0.112179,0.05679 0.112179,0.153625 0,0.109066 -0.08498,0.296903 -0.254953,0.563509 -0.0136,0.02039 -0.02323,0.03556 -0.02889,0.0455 0,0 -0.312742,0.492431 -0.312742,0.492431 0,0 0.516704,-0.348775 0.516704,-0.348775 0,0 0,-0.137607 0,-0.137607 0,0 0.09688,-0.0654 0.09688,-0.0654 0,0 0,0.259925 0,0.259925"
         inkscape:connector-curvature="0" />
    </g>
    <text
       xml:space="preserve"
       style="font-style:normal;font-weight:normal;font-size:10.58333302px;line-height:1.25;font-family:sans-serif;letter-spacing:0px;word-spacing:0px;fill:#000000;fill-opacity:1;stroke:none;stroke-width:0.26458332"
       x="41.2939"
       y="17.486599"
       id="text5857"><tspan
         sodipodi:role="line"
         id="tspan5855"
         x="41.2939"
         y="17.486599"
         style="font-style:normal;font-variant:normal;font-weight:normal;font-stretch:normal;font-size:3.17499995px;font-family:'DejaVu Math TeX Gyre';-inkscape-font-specification:'DejaVu Math TeX Gyre, Normal';font-variant-ligatures:normal;font-variant-caps:normal;font-variant-numeric:normal;font-feature-settings:normal;text-align:start;writing-mode:lr-tb;text-anchor:start;stroke-width:0.26458332">P</tspan></text>
    <path
       style="fill:none;stroke:#000000;stroke-width:0.265;stroke-linecap:butt;stroke-linejoin:miter;stroke-opacity:1;stroke-miterlimit:4;stroke-dasharray:none;marker-end:url(#Arrow1Mend)"
       d="m 26.459682,41.824409 c 0,0 12.561668,10.891235 30.335093,0.133636"
       id="path5882"
       inkscape:connector-curvature="0" />
    <text
       xml:space="preserve"
       style="font-style:normal;font-weight:normal;font-size:10.58333302px;line-height:1.25;font-family:sans-serif;letter-spacing:0px;word-spacing:0px;fill:#000000;fill-opacity:1;stroke:none;stroke-width:0.26458332"
       x="39.889977"
       y="45.833454"
       id="text5954"><tspan
         sodipodi:role="line"
         id="tspan5952"
         x="39.889977"
         y="45.833454"
         style="font-size:2.11666667px;stroke-width:0.26458332">R,t</tspan></text>
    <g
       transform="translate(1.802269,1.1752464)"
       aria-label="p1"
       style="font-style:normal;font-weight:normal;font-size:10.58333302px;line-height:1.25;font-family:sans-serif;letter-spacing:0px;word-spacing:0px;fill:#000000;fill-opacity:1;stroke:none;stroke-width:0.26458332"
       id="text5958">
      <path
         inkscape:connector-curvature="0"
         d="m 21.371897,40.09486 c 0.07729,0.20159 0.115935,0.422313 0.115935,0.662169 0,0.239857 -0.03865,0.408409 -0.115935,0.505657 -0.07858,0.09638 -0.179701,0.102831 -0.303365,0.01936 -0.07729,-0.05217 -0.142344,-0.118691 -0.195159,-0.199561 -0.0541,-0.08174 -0.09726,-0.181644 -0.129462,-0.299718 0,0 0,0.698926 0,0.698926 0,0 0.164243,0.110864 0.164243,0.110864 0,0 0,0.153351 0,0.153351 0,0 -0.504321,-0.340416 -0.504321,-0.340416 0,0 0,-0.153351 0,-0.153351 0,0 0.166175,0.112167 0.166175,0.112167 0,0 0,-1.837262 0,-1.837262 0,0 -0.166175,-0.112168 -0.166175,-0.112168 0,0 0,-0.153351 0,-0.153351 0,0 0.340078,0.229553 0.340078,0.229553 0,0 0,0.238873 0,0.238873 0.0322,-0.0746 0.07536,-0.116246 0.129462,-0.124945 0.05281,-0.0096 0.117868,0.01173 0.195159,0.0639 0.122376,0.0826 0.223498,0.224588 0.303365,0.425951 0,0 0,0 0,0 m -0.154581,0.960267 c 0.04509,-0.07966 0.06763,-0.224681 0.06763,-0.435047 0,-0.210366 -0.02254,-0.384831 -0.06763,-0.523397 -0.04638,-0.139434 -0.114004,-0.23915 -0.202888,-0.299147 -0.08631,-0.05826 -0.153293,-0.05531 -0.200955,0.0089 -0.04637,0.06896 -0.06956,0.193886 -0.06956,0.374761 0,0 0,0.150402 0,0.150402 0,0.184808 0.02319,0.341031 0.06956,0.468669 0.04637,0.127639 0.113359,0.221022 0.200955,0.280149 0.08888,0.06 0.156513,0.05158 0.202888,-0.02525 0,0 0,0 0,0"
         style="font-style:normal;font-variant:normal;font-weight:normal;font-stretch:normal;font-size:8.73124981px;font-family:'DejaVu Math TeX Gyre';-inkscape-font-specification:'DejaVu Math TeX Gyre, Normal';font-variant-ligatures:normal;font-variant-caps:normal;font-variant-numeric:normal;font-feature-settings:normal;text-align:start;writing-mode:lr-tb;text-anchor:start;stroke-width:0.26458332"
         id="path5966" />
      <path
         inkscape:connector-curvature="0"
         d="m 22.206102,42.598427 c 0,0 -0.442101,-0.298418 -0.442101,-0.298418 0,0 0,-0.09968 0,-0.09968 0,0 0.159508,0.107668 0.159508,0.107668 0,0 0,-1.161633 0,-1.161633 0,0 -0.184628,0.05748 -0.184628,0.05748 0,0 0,-0.122681 0,-0.122681 0,0 0.223563,-0.06954 0.223563,-0.06954 0,0 0.08415,0.0568 0.08415,0.0568 0,0 0,1.322651 0,1.322651 0,0 0.159508,0.107668 0.159508,0.107668 0,0 0,0.09968 0,0.09968"
         style="font-size:64.99999762%;baseline-shift:sub"
         id="path5968" />
    </g>
    <g
       id="text6075"
       style="font-style:normal;font-weight:normal;font-size:10.58333302px;line-height:1.25;font-family:sans-serif;letter-spacing:0px;word-spacing:0px;fill:#000000;fill-opacity:1;stroke:none;stroke-width:0.22549635"
       aria-label="I1"
       transform="matrix(1.1733375,0,0,1.1733375,-11.965972,-19.252798)">
      <path
         id="path6092"
         style="font-style:normal;font-variant:normal;font-weight:normal;font-stretch:normal;font-size:10.58333302px;font-family:'DejaVu Math TeX Gyre';-inkscape-font-specification:'DejaVu Math TeX Gyre, Normal';font-variant-ligatures:normal;font-variant-caps:normal;font-variant-numeric:normal;font-feature-settings:normal;text-align:start;writing-mode:lr-tb;text-anchor:start;stroke-width:0.22549635"
         d="m 21.181343,41.459856 c 0,0 -0.77751,-0.52482 -0.77751,-0.52482 0,0 0,-0.122317 0,-0.122317 0,0 0.253714,0.171257 0.253714,0.171257 0,0 0,-1.470164 0,-1.470164 0,0 -0.253714,-0.171257 -0.253714,-0.171257 0,0 0,-0.122318 0,-0.122318 0,0 0.77751,0.524821 0.77751,0.524821 0,0 0,0.122317 0,0.122317 0,0 -0.253714,-0.171257 -0.253714,-0.171257 0,0 0,1.470163 0,1.470163 0,0 0.253714,0.171257 0.253714,0.171257 0,0 0,0.122318 0,0.122318"
         inkscape:connector-curvature="0" />
      <path
         id="path6094"
         style="font-size:64.99999762%;baseline-shift:sub;stroke-width:0.22549635"
         d="m 22.206102,42.62202 c 0,0 -0.624189,-0.421327 -0.624189,-0.421327 0,0 0,-0.07951 0,-0.07951 0,0 0.225205,0.152013 0.225205,0.152013 0,0 0,-0.926554 0,-0.926554 0,0 -0.26067,-0.0307 -0.26067,-0.0307 0,0 0,-0.09785 0,-0.09785 0,0 0.315641,0.03723 0.315641,0.03723 0,0 0.118809,0.0802 0.118809,0.0802 0,0 0,1.054988 0,1.054988 0,0 0.225204,0.152013 0.225204,0.152013 0,0 0,0.07951 0,0.07951"
         inkscape:connector-curvature="0" />
    </g>
  </g>
</svg>
